<svg width="20" height="22" viewBox="0 0 20 22" fill="none" xmlns="http://www.w3.org/2000/svg">
<path fill-rule="evenodd" clip-rule="evenodd" d="M16.9138 10.577C16.4142 10.7048 15.9004 10.7694 15.3846 10.7693H15.3692V11.1032C15.3692 12.5016 15.5892 13.9001 16.0492 15.2432L16.62 16.9555H1.80462V16.937L2.37385 15.2247C2.81894 13.8895 3.04899 12.4921 3.05538 11.0847V7.69857C3.05538 6.83241 3.24 5.98626 3.58923 5.21241C3.93846 4.42164 4.43538 3.72164 5.08 3.15087C5.72462 2.56318 6.48 2.12011 7.28923 1.86318C8.11692 1.58626 8.98154 1.49395 9.82769 1.58626L10.0123 1.61395C10.2921 1.11304 10.6406 0.653715 11.0477 0.249336C10.6955 0.155521 10.3372 0.0861258 9.97538 0.041644C8.90769 -0.0691253 7.82154 0.041644 6.79077 0.390875C5.76 0.721644 4.82154 1.27395 4.03077 2.01087C3.23606 2.72879 2.60263 3.60709 2.17231 4.5878C1.73984 5.56813 1.51412 6.62709 1.50923 7.69857V11.0832C1.50698 12.3221 1.30809 13.5528 0.92 14.7293L0 17.4509L0.736923 18.4632H6.12923C6.12923 19.2724 6.46 20.0632 7.03077 20.6355C7.6 21.2047 8.39231 21.537 9.20308 21.537C10.0123 21.537 10.8031 21.2063 11.3738 20.6355C11.9446 20.0647 12.2769 19.2724 12.2769 18.4632H17.6692L18.4046 17.4509L17.5031 14.7278C17.1137 13.5457 16.9148 12.3093 16.9138 11.0647V10.577ZM9.20308 20.0309C9.40563 20.0295 9.6059 19.988 9.79232 19.9087C9.97874 19.8295 10.1476 19.7142 10.2892 19.5693C10.4345 19.4294 10.5488 19.2606 10.6248 19.0738C10.7009 18.887 10.737 18.6863 10.7308 18.4847H7.65692C7.65692 18.8893 7.82154 19.2755 8.11692 19.5709C8.25875 19.7153 8.42772 19.8303 8.61411 19.9092C8.80051 19.9882 9.00066 20.0295 9.20308 20.0309Z" fill="#525252"/>
<path d="M16 8C16.5253 8 17.0454 7.89654 17.5307 7.69552C18.016 7.4945 18.457 7.19986 18.8284 6.82843C19.1999 6.45699 19.4945 6.01604 19.6955 5.53073C19.8965 5.04543 20 4.52529 20 4C20 3.47471 19.8965 2.95457 19.6955 2.46927C19.4945 1.98396 19.1999 1.54301 18.8284 1.17157C18.457 0.800139 18.016 0.505501 17.5307 0.304482C17.0454 0.103463 16.5253 -7.82739e-09 16 0C14.9391 1.58081e-08 13.9217 0.421427 13.1716 1.17157C12.4214 1.92172 12 2.93913 12 4C12 5.06087 12.4214 6.07828 13.1716 6.82843C13.9217 7.57857 14.9391 8 16 8Z" fill="#EB3B3B"/>
</svg>
