<svg width="194" height="30" viewBox="0 0 194 30" fill="none" xmlns="http://www.w3.org/2000/svg">
<path d="M5.03709 29.0047H0V0.7109H6.62018C13.816 0.7109 17.5579 5.97156 17.5579 11.2322C17.5579 16.4929 13.6721 21.7536 7.33976 21.7536H5.03709V29.0047ZM5.03709 17.0616H7.05193C10.6499 17.0616 12.3769 14.0758 12.3769 11.2322C12.3769 8.38863 10.5059 5.40284 6.47626 5.40284H5.03709V17.0616ZM31.5178 29.4313C24.8976 29.4313 20.4362 24.8815 20.4362 18.0569V0.7109H25.6172V17.9147C25.6172 22.3223 27.776 24.5972 31.6617 24.5972C36.5549 24.5972 37.5623 20.9005 37.5623 17.9147V0.7109H42.7433V18.0569C42.5994 24.8815 38.138 29.4313 31.5178 29.4313ZM60.0134 29.0047H46.0534V0.7109H51.2344V24.1706H60.0134V29.0047ZM75.9881 29.0047H62.0282V0.7109H67.2092V24.1706H75.9881V29.0047ZM114.414 29.0047H105.635V0.7109H110.96C113.982 0.7109 116.429 0.85308 118.156 1.99052C120.746 3.41232 122.042 5.82938 122.042 8.81516C122.042 10.8057 121.178 12.5118 119.739 13.7915C122.473 15.2133 123.912 17.4882 123.912 20.7583C124.056 25.3081 119.739 29.0047 114.414 29.0047ZM110.672 24.1706H113.407C118.731 24.1706 118.731 21.327 118.731 20.4739C118.731 19.6209 118.731 16.7773 113.55 16.7773H110.672V24.1706ZM110.672 12.2275H112.687C114.558 12.2275 116.861 11.6588 116.861 8.81516C116.861 7.39336 116.429 5.40284 112.399 5.40284H110.528L110.672 12.2275ZM144.205 29.0047H126.647V0.7109H144.205V5.54502H131.828V12.2275H143.485V16.9194H131.828V24.1706H144.205V29.0047ZM173.276 29.0047H167.375L164.497 21.6114H153.991L151.113 29.0047H145.644L157.301 0.853081H161.331L173.276 29.0047ZM155.718 16.9194H162.626L159.172 8.38863L155.718 16.9194ZM185.077 24.1706C185.797 25.7346 186.66 27.2986 187.668 28.8626H194C192.561 26.7299 191.122 24.0284 189.97 21.7536L187.812 17.4882C189.107 16.7773 190.258 15.782 191.122 14.5024C191.985 13.0806 192.417 11.5166 192.417 9.66825C192.417 4.12322 188.243 0.853081 181.479 0.853081H174.571V29.0047H179.608V19.4787C179.608 19.4787 180.904 19.4787 182.631 19.1943C183.206 20.3318 184.07 22.1801 185.077 24.1706ZM179.608 14.3602V5.54502H181.191C185.221 5.54502 187.236 6.96682 187.236 9.81043C187.236 13.6493 184.07 14.5024 181.335 14.5024H179.608V14.3602ZM97.5757 22.4645C97.5757 21.4692 97.7196 20.6161 98.0074 19.763C98.5831 18.1991 99.4466 17.0616 100.598 16.9194H100.742V12.2275C97.1439 12.2275 94.2656 14.6445 93.4021 17.9147L85.9184 9.81043C85.1988 9.09953 84.911 8.38863 84.911 7.67772C84.911 6.96682 85.1988 6.25592 85.7745 5.6872C86.3502 5.11848 87.0697 4.83412 87.7893 4.83412C88.5089 4.83412 89.2285 5.11848 89.8042 5.6872C90.092 5.97156 90.2359 6.25592 90.3798 6.54028L94.6973 4.40758C94.2656 3.69668 93.8338 2.98578 93.2582 2.27488C91.819 0.853081 89.8042 0 87.7893 0C85.7745 0 83.9036 0.710901 82.3205 2.27488C80.8813 3.69668 80.0178 5.6872 80.0178 7.67772C80.0178 9.52607 80.7374 11.5166 82.1766 12.9384C79.5861 14.5024 77.7151 17.346 77.7151 20.6161C77.7151 25.7346 81.8887 30 87.2137 30C90.2359 30 92.9703 28.7204 94.8413 26.7299L96.8561 28.8626H103.62L97.5757 22.4645ZM87.3576 25.3081C84.7671 25.3081 82.7522 23.1754 82.7522 20.6161C82.7522 18.7678 84.0475 17.2038 85.7745 16.6351L91.819 23.1754C90.6677 24.455 89.0846 25.3081 87.3576 25.3081Z" fill="#1D1D1B"/>
</svg>
